<?xml version="1.0" encoding="UTF-8"?>
<svg id="_レイヤー_1" data-name="レイヤー 1" xmlns="http://www.w3.org/2000/svg" viewBox="0 0 381.57 172.47">
  <defs>
    <style>
      .cls-1 {
        fill: #fff;
      }
    </style>
  </defs>
  <path class="cls-1" d="M102.01,97.77l.03-3.28-5.12-6.9,12.38-.03v16.81s-20.6-.1-20.6-.1c-6.25-.03-11.83-3.65-15.33-8.61-4.59-8.1-1.36-17.83,6.75-22.09,2.93-1.54,6.07-2.18,9.39-2.57,6.57-.5,12.96-.52,19.75.3l-3.82,6.24-11.96.06c-2.94.24-5.85.54-8.56,1.64-3.75,1.52-5.82,5.13-5.5,9.07.81,10.13,13.76,9.54,22.59,9.47Z"/>
  <path class="cls-1" d="M147.01,99.77c-7.53,6.11-18.58,6.07-26.02.06-4.65-3.76-6.93-9.5-5.78-15.34.79-4.03,3.16-7.45,6.47-9.86,7.28-5.32,17.33-5.34,24.59-.01,4.12,3.02,6.64,7.52,6.77,12.66.13,4.83-2.13,9.34-6.02,12.5ZM141.93,94.5c4.2-3.6,4.36-9.54.66-13.38-2.55-2.65-6.01-3.81-9.73-3.5-3.95.34-7.57,2.49-9.3,6.14s-.6,8.18,2.62,10.86c4.5,3.75,11.23,3.73,15.74-.13Z"/>
  <path class="cls-1" d="M203.41,94.53l-5.06-6.87,12.34-.05v9.84s10.18-.04,10.18-.04c2.59-.47,4.59-2.1,5.92-4.31,2.43-3.86,2.46-8.71-.36-12.34-1.52-1.96-3.76-3.16-6.27-3.16l-16.73-.02-5.12-6.88,23.82.02c2.54,0,4.95.83,7.07,1.98,4.72,2.57,6.41,7.75,6.92,12.94.38,3.92-.17,7.7-2.08,11.15-2.49,4.52-7,7.43-12.27,7.45l-18.35.08v-9.79Z"/>
  <path class="cls-1" d="M175.61,93.55l-9.61-.02-.02,10.81-7.28-.02v-16.64s20.69-.09,20.69-.09c2.5-.01,4.57-1.66,5.11-3.95.51-3.14-1.76-5.72-4.91-6.08h-15.71s-5.16-6.89-5.16-6.89h20.49c7.21.06,12.71,4.21,13.31,11.44.47,5.43-3.21,8.34-7.88,10.83,2.91,3.59,5.41,7.26,7.89,11.36l-9.3.02-7.63-10.79Z"/>
  <path class="cls-1" d="M261.65,103.92c3.09-1.92,5.92-3.77,8.45-6.23l3.93-3.83c3.8-4.23,7.28-8.54,10.7-13.1,3.6-4.8,7.53-8.61,13.58-9.86,2.71-.33,5.28-.52,8.16.32-11.23,5.39-16.77,12.98-23.68,22.57-2.28,3.17-5,5.76-8.24,7.87-3.86,2.28-8.21,3.34-12.91,2.27Z"/>
  <polygon class="cls-1" points="254.11 104.32 246.8 104.32 246.89 77.61 241.67 70.69 254.11 70.66 254.11 104.32"/>
  <path class="cls-1" d="M282.44,79.89l-5.18,5.94-14.74-14.78c4.82-1.15,9.6-.08,13.62,2.76,2.34,1.68,4.29,3.73,6.31,6.08Z"/>
  <path class="cls-1" d="M306.35,103.63c-9.19,2.63-14.94-2.04-20.53-8.64l4.85-6.54,5.92,7.07c2.73,3.26,5.94,5.83,9.76,8.11Z"/>
</svg>